<svg width="446" height="434" viewBox="0 0 446 434" fill="none" xmlns="http://www.w3.org/2000/svg">
<path fill-rule="evenodd" clip-rule="evenodd" d="M91.228 122.571C84.5789 111.054 88.9184 96.0956 100.918 89.1674C109.371 84.2874 118.03 81.1982 127.711 83.8196C130.571 84.5926 133.582 84.7837 136.562 84.3814C139.541 83.9792 142.428 82.9919 145.048 81.4792C147.668 79.9665 149.967 77.9599 151.805 75.5804C153.644 73.201 154.983 70.4981 155.744 67.6351C158.314 57.94 165.319 51.9855 173.772 47.1056C178.07 44.6205 182.98 43.4151 187.879 43.642C192.778 43.8688 197.447 45.5177 201.294 48.38C205.141 51.2423 207.994 55.1892 209.491 59.7213C210.988 64.2534 211.062 69.167 209.704 73.8401L186.606 153.46L106.105 133.653C102.968 132.881 100.039 131.505 97.4864 129.603C94.9337 127.702 92.807 125.312 91.228 122.571ZM79.4351 51.9571C67.4673 58.8655 57.7344 69.0249 51.4674 81.1503C45.2004 93.2758 42.6808 106.823 44.2271 120.078C45.7735 133.333 51.3164 145.7 60.1549 155.617C68.9934 165.533 80.7304 172.553 93.8815 175.787L195.694 200.853C201.343 202.242 207.405 201.355 212.545 198.387C217.686 195.419 221.485 190.613 223.106 185.027L252.305 84.3214C256.068 71.3167 255.849 57.6479 251.677 45.0416C247.505 32.4352 239.566 21.4566 228.864 13.4927C218.162 5.52876 205.176 0.93663 191.547 0.296347C177.917 -0.343937 164.256 2.99635 152.288 9.89529C139.416 17.3272 128.339 26.5257 120.738 39.3729C105.842 39.5389 92.3075 44.5252 79.4351 51.9571ZM324.411 84.1682C336.411 77.24 351.535 80.9611 358.184 92.4777C362.868 100.59 365.715 108.968 362.692 118.552C361.801 121.383 361.498 124.341 361.803 127.247C362.108 130.154 363.013 132.949 364.465 135.464C365.917 137.978 367.885 140.16 370.249 141.877C372.614 143.594 375.327 144.811 378.225 145.455C388.036 147.629 393.868 154.284 398.551 162.396C400.937 166.521 401.993 171.291 401.587 176.102C401.181 180.912 399.33 185.548 396.269 189.421C393.209 193.294 389.076 196.231 384.393 197.86C379.711 199.489 374.689 199.737 369.965 198.572L289.463 178.766L312.561 99.1465C314.376 92.8889 318.634 87.5036 324.411 84.1682ZM396.957 70.0925C390.327 58.6068 380.296 49.4278 368.135 43.7163C355.973 38.0048 342.226 36.0174 328.632 38.0055C315.038 39.9935 302.208 45.8677 291.764 54.8851C281.321 63.9025 273.733 75.6581 269.96 88.6651L240.731 189.363C239.111 194.95 239.801 200.86 242.649 205.794C245.498 210.727 250.271 214.28 255.92 215.671L357.741 240.706C370.892 243.943 384.867 243.249 397.898 238.714C410.929 234.178 422.431 226.004 430.949 215.225C439.468 204.447 444.621 191.547 445.755 178.159C446.89 164.771 443.956 151.495 437.324 140.011C430.191 127.657 421.19 117.126 408.339 110.133C408.7 95.5365 404.089 82.4463 396.957 70.0925ZM345.639 344.788C349.94 342.308 353.439 338.659 355.692 334.302C357.945 329.946 358.851 325.078 358.296 320.316C357.741 315.553 355.749 311.109 352.573 307.546C349.396 303.984 345.178 301.463 340.452 300.302L259.951 280.496L236.853 360.115C235.495 364.788 235.569 369.702 237.066 374.234C238.563 378.766 241.416 382.713 245.263 385.575C249.11 388.438 253.779 390.086 258.678 390.313C263.577 390.54 268.487 389.335 272.785 386.85C281.238 381.97 288.243 376.015 290.813 366.32C291.574 363.457 292.913 360.754 294.752 358.375C296.59 355.995 298.889 353.989 301.509 352.476C304.129 350.963 307.016 349.976 309.996 349.574C312.975 349.172 315.986 349.363 318.846 350.136C328.527 352.757 337.186 349.668 345.639 344.788ZM394.101 288.999C398.507 296.624 401.304 305.078 402.332 313.879C403.36 322.681 402.6 331.656 400.095 340.292C397.589 348.929 393.387 357.057 387.73 364.213C382.072 371.369 375.07 377.413 367.122 381.998C354.25 389.43 340.745 394.424 325.819 394.582C318.227 407.4 307.141 416.628 294.269 424.06C282.302 430.97 268.637 434.319 255.003 433.684C241.368 433.049 228.377 428.457 217.671 420.491C206.965 412.524 199.025 401.54 194.857 388.927C190.688 376.315 190.478 362.641 194.252 349.634L223.451 248.929C225.072 243.342 228.871 238.536 234.012 235.568C239.152 232.6 245.214 231.713 250.863 233.102L352.676 258.168C370.3 262.504 385.207 273.594 394.101 288.999ZM122.146 349.787C119.293 351.438 116.155 352.532 112.913 353.008C109.671 353.483 106.387 353.331 103.25 352.559C100.113 351.787 97.1844 350.411 94.6316 348.51C92.0788 346.608 89.9519 344.219 88.3728 341.478C83.6894 333.366 80.8425 324.987 83.865 315.403C84.7563 312.573 85.0588 309.615 84.754 306.708C84.4493 303.801 83.5437 301.006 82.092 298.492C80.6403 295.977 78.6725 293.795 76.3076 292.078C73.9427 290.361 71.2297 289.144 68.3325 288.5C58.5213 286.326 52.6889 279.671 48.0056 271.559C45.6204 267.434 44.5641 262.664 44.9703 257.854C45.3766 253.043 47.2271 248.408 50.2877 244.535C53.3483 240.661 57.4814 237.724 62.1639 236.095C66.8463 234.466 71.8677 234.218 76.5925 235.383L157.094 255.189L133.996 334.809C133.096 337.911 131.586 340.831 129.552 343.401C127.519 345.972 125.002 348.142 122.146 349.787ZM49.6005 363.863C56.2305 375.348 66.2607 384.527 78.4225 390.239C90.5843 395.95 104.331 397.938 117.925 395.95C131.519 393.962 144.349 388.088 154.793 379.07C165.236 370.053 172.824 358.297 176.597 345.29L205.826 244.592C207.446 239.005 206.756 233.095 203.908 228.161C201.059 223.228 196.286 219.675 190.637 218.285L88.8158 193.249C75.6651 190.013 61.6905 190.706 48.6595 195.242C35.6284 199.777 24.1262 207.951 15.6075 218.73C7.0889 229.509 1.93644 242.408 0.801813 255.796C-0.332817 269.184 2.60135 282.46 9.23322 293.945C16.3657 306.298 25.3666 316.829 38.2182 323.822C37.857 338.419 42.468 351.509 49.6005 363.863Z" fill="#F5F4F3"/>
</svg>
