<svg xmlns="http://www.w3.org/2000/svg" width="260" height="368" viewBox="0 0 260 368"><rect width="100%" height="100%" fill="#CCE0DE"/><path fill="#8DBAB5" d="M52.6 184.265q0-3.88 1.14-7.26 1.14-3.39 3.27-5.94h3.67q-2.07 2.83-3.12 6.21-1.06 3.39-1.06 6.96 0 3.59 1.08 6.94 1.07 3.35 3.07 6.06h-3.64q-2.15-2.49-3.28-5.82-1.13-3.32-1.13-7.15Zm30.66-13.2v21.42h-5.77l-9.31-16.2h-.14q.28 4.29.28 6.12v10.08h-4.05v-21.42h5.72l9.3 16.04h.11q-.22-4.17-.22-5.9v-10.14h4.08Zm8.6 13.2q0 2.43.8 3.68.8 1.24 2.6 1.24 1.79 0 2.57-1.23.79-1.24.79-3.69 0-2.43-.8-3.65-.79-1.21-2.59-1.21-1.79 0-2.58 1.21t-.79 3.65Zm11.33 0q0 4-2.11 6.26-2.11 2.25-5.88 2.25-2.36 0-4.16-1.03-1.8-1.03-2.77-2.97-.96-1.93-.96-4.51 0-4.01 2.09-6.24 2.1-2.22 5.89-2.22 2.36 0 4.16 1.02 1.8 1.03 2.77 2.95.97 1.91.97 4.49Zm20.93-9.72q-2.56 0-3.97 1.92-1.41 1.93-1.41 5.37 0 7.16 5.38 7.16 2.25 0 5.46-1.12v3.8q-2.63 1.1-5.89 1.1-4.67 0-7.14-2.83-2.48-2.84-2.48-8.14 0-3.34 1.22-5.85 1.21-2.51 3.49-3.85 2.28-1.34 5.34-1.34 3.12 0 6.27 1.51l-1.47 3.69q-1.2-.57-2.41-1-1.22-.42-2.39-.42Zm13.23 9.72q0 2.43.79 3.68.8 1.24 2.6 1.24 1.79 0 2.58-1.23.78-1.24.78-3.69 0-2.43-.79-3.65-.79-1.21-2.59-1.21-1.79 0-2.58 1.21t-.79 3.65Zm11.32 0q0 4-2.11 6.26-2.11 2.25-5.87 2.25-2.36 0-4.16-1.03-1.81-1.03-2.77-2.97-.97-1.93-.97-4.51 0-4.01 2.1-6.24 2.09-2.22 5.88-2.22 2.36 0 4.16 1.02 1.81 1.03 2.77 2.95.97 1.91.97 4.49Zm12.17 8.22h-4.58l-6.24-16.38h4.67l3.16 9.33q.53 1.78.66 3.36h.09q.07-1.41.66-3.36l3.15-9.33h4.67l-6.24 16.38Zm15.37-13.51q-1.42 0-2.23.91-.8.9-.92 2.55h6.27q-.03-1.65-.87-2.55-.83-.91-2.25-.91Zm.63 13.8q-3.96 0-6.18-2.18-2.23-2.18-2.23-6.18 0-4.12 2.06-6.37 2.06-2.24 5.69-2.24 3.47 0 5.4 1.97 1.94 1.98 1.94 5.47v2.16h-10.56q.07 1.91 1.12 2.98 1.06 1.07 2.96 1.07 1.48 0 2.8-.31 1.32-.31 2.76-.98v3.46q-1.18.58-2.51.87-1.33.28-3.25.28Zm19.45-16.97q.91 0 1.51.13l-.34 4.19q-.54-.15-1.31-.15-2.14 0-3.34 1.1-1.19 1.1-1.19 3.08v8.33h-4.47v-16.38h3.38l.66 2.76h.22q.77-1.38 2.06-2.22 1.3-.84 2.82-.84Zm11.11 8.46q0 3.85-1.14 7.18-1.14 3.33-3.27 5.79h-3.64q1.98-2.7 3.06-6.05 1.09-3.34 1.09-6.95 0-3.57-1.06-6.96-1.05-3.38-3.12-6.21h3.67q2.15 2.57 3.28 5.96t1.13 7.24Z"/></svg>