<svg width="29" height="30" viewBox="0 0 29 30" fill="none" xmlns="http://www.w3.org/2000/svg">
<g filter="url(#filter0_d_4026_22920)">
<path d="M5.31254 0C4.96444 0 4.63058 0.136344 4.38444 0.379038C4.13829 0.621732 4 0.950896 4 1.29412C4 1.63734 4.13829 1.9665 4.38444 2.2092C4.63058 2.45189 4.96444 2.58824 5.31254 2.58824H6.91385L7.31417 4.16965L7.3273 4.224L9.10973 11.2511L7.93763 12.4054C6.28383 14.036 7.45462 16.8235 9.79357 16.8235H21.0631C21.4112 16.8235 21.745 16.6872 21.9912 16.4445C22.2373 16.2018 22.3756 15.8726 22.3756 15.5294C22.3756 15.1862 22.2373 14.857 21.9912 14.6143C21.745 14.3716 21.4112 14.2353 21.0631 14.2353H9.79357L11.1061 12.9412H19.7505C19.9942 12.941 20.2331 12.874 20.4403 12.7476C20.6475 12.6212 20.815 12.4405 20.9239 12.2255L24.8616 4.46082C24.9615 4.26357 25.0087 4.04441 24.9987 3.82413C24.9886 3.60384 24.9216 3.38975 24.8041 3.20216C24.6865 3.01457 24.5223 2.8597 24.327 2.75226C24.1317 2.64481 23.9118 2.58835 23.6882 2.58824H9.61769L9.2108 0.979647C9.1397 0.699798 8.97579 0.451399 8.74512 0.273907C8.51445 0.0964146 8.23023 7.58409e-06 7.93763 0H5.31254ZM22.3756 20.0588C22.3756 20.5737 22.1682 21.0674 21.799 21.4314C21.4297 21.7955 20.929 22 20.4068 22C19.8846 22 19.3839 21.7955 19.0146 21.4314C18.6454 21.0674 18.438 20.5737 18.438 20.0588C18.438 19.544 18.6454 19.0502 19.0146 18.6862C19.3839 18.3222 19.8846 18.1176 20.4068 18.1176C20.929 18.1176 21.4297 18.3222 21.799 18.6862C22.1682 19.0502 22.3756 19.544 22.3756 20.0588ZM9.90645 22C10.4286 22 10.9294 21.7955 11.2986 21.4314C11.6678 21.0674 11.8753 20.5737 11.8753 20.0588C11.8753 19.544 11.6678 19.0502 11.2986 18.6862C10.9294 18.3222 10.4286 18.1176 9.90645 18.1176C9.38428 18.1176 8.88351 18.3222 8.51428 18.6862C8.14506 19.0502 7.93763 19.544 7.93763 20.0588C7.93763 20.5737 8.14506 21.0674 8.51428 21.4314C8.88351 21.7955 9.38428 22 9.90645 22Z" fill="white"/>
</g>
<defs>
<filter id="filter0_d_4026_22920" x="0" y="0" width="29" height="30" filterUnits="userSpaceOnUse" color-interpolation-filters="sRGB">
<feFlood flood-opacity="0" result="BackgroundImageFix"/>
<feColorMatrix in="SourceAlpha" type="matrix" values="0 0 0 0 0 0 0 0 0 0 0 0 0 0 0 0 0 0 127 0" result="hardAlpha"/>
<feOffset dy="4"/>
<feGaussianBlur stdDeviation="2"/>
<feComposite in2="hardAlpha" operator="out"/>
<feColorMatrix type="matrix" values="0 0 0 0 0 0 0 0 0 0 0 0 0 0 0 0 0 0 0.25 0"/>
<feBlend mode="normal" in2="BackgroundImageFix" result="effect1_dropShadow_4026_22920"/>
<feBlend mode="normal" in="SourceGraphic" in2="effect1_dropShadow_4026_22920" result="shape"/>
</filter>
</defs>
</svg>
