<svg width="32" height="32" viewBox="0 0 32 32" fill="none" xmlns="http://www.w3.org/2000/svg">
<g clip-path="url(#clip0_165_516)">
<path d="M2.00006 0C1.46962 0 0.960891 0.1984 0.585806 0.551393C0.210721 0.904386 0 1.38317 0 1.88237C0 2.38168 0.210721 2.86047 0.585806 3.21346C0.960891 3.56646 1.46962 3.76474 2.00006 3.76474H4.44015L5.05016 6.06499L5.07016 6.144L7.78626 16.3652L6.0002 18.0442C3.48012 20.4161 5.26417 24.4706 8.8283 24.4706H26.0008C26.5313 24.4706 27.04 24.2723 27.4151 23.9193C27.7902 23.5663 28.001 23.0876 28.001 22.5882C28.001 22.089 27.7902 21.6103 27.4151 21.2573C27.04 20.9043 26.5313 20.706 26.0008 20.706H8.8283L10.8284 18.8236H24.0008C24.3722 18.8234 24.7361 18.726 25.0518 18.5421C25.3677 18.3582 25.6228 18.0952 25.7889 17.7826L31.789 6.4885C31.9414 6.2016 32.0133 5.88281 31.998 5.56237C31.9826 5.24204 31.8805 4.93065 31.7014 4.65777C31.5223 4.38488 31.2721 4.15967 30.9745 4.00331C30.6769 3.84706 30.3418 3.76496 30.001 3.76474H8.56029L7.94027 1.42499C7.83191 1.01793 7.58215 0.656661 7.23065 0.398454C6.87916 0.140247 6.44607 0.000110345 6.0002 0H2.00006ZM28.001 29.1765C28.001 29.9254 27.6848 30.6435 27.1222 31.1731C26.5596 31.7026 25.7965 32 25.0008 32C24.2051 32 23.442 31.7026 22.8795 31.1731C22.3168 30.6435 22.0007 29.9254 22.0007 29.1765C22.0007 28.4277 22.3168 27.7095 22.8795 27.18C23.442 26.6505 24.2051 26.353 25.0008 26.353C25.7965 26.353 26.5596 26.6505 27.1222 27.18C27.6848 27.7095 28.001 28.4277 28.001 29.1765ZM9.0003 32C9.79598 32 10.5591 31.7026 11.1217 31.1731C11.6844 30.6435 12.0004 29.9254 12.0004 29.1765C12.0004 28.4277 11.6844 27.7095 11.1217 27.18C10.5591 26.6505 9.79598 26.353 9.0003 26.353C8.20463 26.353 7.44153 26.6505 6.87891 27.18C6.31628 27.7095 6.0002 28.4277 6.0002 29.1765C6.0002 29.9254 6.31628 30.6435 6.87891 31.1731C7.44153 31.7026 8.20463 32 9.0003 32Z" fill="black"/>
</g>
<defs>
<clipPath id="clip0_165_516">
<rect width="32" height="32" fill="white"/>
</clipPath>
</defs>
</svg>
