<svg width="22" height="28" viewBox="0 0 22 28" fill="none" xmlns="http://www.w3.org/2000/svg">
<path d="M22 5.56339H20.3077V24.9689C20.3077 25.3204 20.2416 25.65 20.1094 25.9576C19.9772 26.2652 19.7965 26.5332 19.5673 26.7618C19.3381 26.9903 19.0693 27.1704 18.7608 27.3023C18.4523 27.4341 18.1218 27.5 17.7692 27.5H4.23077C3.87821 27.5 3.54768 27.4341 3.23918 27.3023C2.93069 27.1704 2.66186 26.9903 2.43269 26.7618C2.20353 26.5332 2.02284 26.2652 1.89062 25.9576C1.75841 25.65 1.69231 25.3204 1.69231 24.9689V5.56339H0V3.87596H6.76923V2.18853C6.76923 1.95123 6.8133 1.73152 6.90144 1.52938C6.98958 1.32724 7.10857 1.15146 7.25841 1.00205C7.40825 0.852647 7.58894 0.729605 7.80048 0.632929C8.01202 0.536253 8.23237 0.49231 8.46154 0.501099H13.5385C13.7764 0.501099 13.9968 0.545042 14.1995 0.632929C14.4022 0.720816 14.5785 0.839464 14.7284 0.988872C14.8782 1.13828 15.0016 1.31845 15.0986 1.52938C15.1955 1.74031 15.2396 1.96002 15.2308 2.18853V3.87596H22V5.56339ZM8.46154 3.87596H13.5385V2.18853H8.46154V3.87596ZM18.6154 5.56339H3.38462V24.9689C3.38462 25.1974 3.46835 25.3951 3.63582 25.5621C3.80329 25.7291 4.0016 25.8126 4.23077 25.8126H17.7692C17.9984 25.8126 18.1967 25.7291 18.3642 25.5621C18.5317 25.3951 18.6154 25.1974 18.6154 24.9689V5.56339ZM8.46154 22.4377H6.76923V8.93826H8.46154V22.4377ZM11.8462 22.4377H10.1538V8.93826H11.8462V22.4377ZM15.2308 22.4377H13.5385V8.93826H15.2308V22.4377Z" fill="black"/>
</svg>
