<svg width="29" height="25" viewBox="0 0 29 25" fill="none" xmlns="http://www.w3.org/2000/svg">
<path d="M14.5 24.1667L13.8156 24.8511C13.9054 24.9411 14.0121 25.0125 14.1295 25.0612C14.2469 25.11 14.3728 25.1351 14.5 25.1351C14.6271 25.1351 14.7531 25.11 14.8705 25.0612C14.9879 25.0125 15.0946 24.9411 15.1844 24.8511L14.5 24.1667ZM14.5 4.83333L13.8156 5.51773C13.9054 5.60776 14.0121 5.67918 14.1295 5.72791C14.2469 5.77664 14.3728 5.80173 14.5 5.80173C14.6271 5.80173 14.7531 5.77664 14.8705 5.72791C14.9879 5.67918 15.0946 5.60776 15.1844 5.51773L14.5 4.83333ZM15.1844 23.4823L3.65207 11.9519L2.2852 13.3187L13.8156 24.8511L15.1844 23.4823ZM25.3479 11.9519L13.8156 23.4823L15.1844 24.8511L26.7148 13.3187L25.3479 11.9519ZM11.9519 3.65207L13.8156 5.51773L15.1844 4.14893L13.3187 2.2852L11.9519 3.65207ZM15.1844 5.51773L17.0481 3.65207L15.6813 2.2852L13.8156 4.14893L15.1844 5.51773ZM21.1971 0C19.1284 0 17.1448 0.821666 15.6813 2.2852L17.0481 3.65207C18.1491 2.55255 19.6411 1.93446 21.1971 1.93333V0ZM27.0667 7.80293C27.0667 9.35927 26.448 10.8518 25.346 11.9519L26.7148 13.3187C28.1769 11.8553 28.9988 9.87161 29 7.80293H27.0667ZM29 7.80293C29 5.73347 28.1779 3.74876 26.7146 2.28543C25.2512 0.822092 23.2665 0 21.1971 0V1.93333C22.7538 1.93333 24.2467 2.55174 25.3475 3.6525C26.4483 4.75326 27.0667 6.24622 27.0667 7.80293H29ZM7.80293 1.93333C9.35927 1.93333 10.8518 2.552 11.9519 3.654L13.3187 2.2852C11.8553 0.823086 9.87161 0.00124066 7.80293 0V1.93333ZM1.93333 7.80293C1.93333 6.24622 2.55174 4.75326 3.6525 3.6525C4.75326 2.55174 6.24622 1.93333 7.80293 1.93333V0C5.73347 0 3.74876 0.822092 2.28543 2.28543C0.822092 3.74876 0 5.73347 0 7.80293H1.93333ZM3.65207 11.9519C2.55184 10.8512 1.93498 9.35917 1.93333 7.80293H0C0 9.8716 0.821667 11.8552 2.2852 13.3187L3.65207 11.9519Z" fill="black"/>
</svg>
