<svg width="29" height="27" viewBox="0 0 29 27" fill="none" xmlns="http://www.w3.org/2000/svg">
<g clip-path="url(#clip0_4034_23261)">
<path d="M14.5 26.1667L13.8156 26.8511C13.9054 26.9411 14.0121 27.0125 14.1295 27.0612C14.2469 27.11 14.3728 27.1351 14.5 27.1351C14.6271 27.1351 14.7531 27.11 14.8705 27.0612C14.9879 27.0125 15.0946 26.9411 15.1844 26.8511L14.5 26.1667ZM14.5 6.83333L13.8156 7.51773C13.9054 7.60776 14.0121 7.67918 14.1295 7.72791C14.2469 7.77664 14.3728 7.80173 14.5 7.80173C14.6271 7.80173 14.7531 7.77664 14.8705 7.72791C14.9879 7.67918 15.0946 7.60776 15.1844 7.51773L14.5 6.83333ZM15.1844 25.4823L3.65207 13.9519L2.2852 15.3187L13.8156 26.8511L15.1844 25.4823ZM25.3479 13.9519L13.8156 25.4823L15.1844 26.8511L26.7148 15.3187L25.3479 13.9519ZM11.9519 5.65207L13.8156 7.51773L15.1844 6.14893L13.3187 4.2852L11.9519 5.65207ZM15.1844 7.51773L17.0481 5.65207L15.6813 4.2852L13.8156 6.14893L15.1844 7.51773ZM21.1971 2C19.1284 2 17.1448 2.82167 15.6813 4.2852L17.0481 5.65207C18.1491 4.55255 19.6411 3.93446 21.1971 3.93333V2ZM27.0667 9.80293C27.0667 11.3593 26.448 12.8518 25.346 13.9519L26.7148 15.3187C28.1769 13.8553 28.9988 11.8716 29 9.80293H27.0667ZM29 9.80293C29 7.73347 28.1779 5.74876 26.7146 4.28543C25.2512 2.82209 23.2665 2 21.1971 2V3.93333C22.7538 3.93333 24.2467 4.55174 25.3475 5.6525C26.4483 6.75326 27.0667 8.24622 27.0667 9.80293H29ZM7.80293 3.93333C9.35927 3.93333 10.8518 4.552 11.9519 5.654L13.3187 4.2852C11.8553 2.82309 9.87161 2.00124 7.80293 2V3.93333ZM1.93333 9.80293C1.93333 8.24622 2.55174 6.75326 3.6525 5.6525C4.75326 4.55174 6.24622 3.93333 7.80293 3.93333V2C5.73347 2 3.74876 2.82209 2.28543 4.28543C0.822092 5.74876 0 7.73347 0 9.80293H1.93333ZM3.65207 13.9519C2.55184 12.8512 1.93498 11.3592 1.93333 9.80293H0C0 11.8716 0.821667 13.8552 2.2852 15.3187L3.65207 13.9519Z" fill="black"/>
</g>
<defs>
<clipPath id="clip0_4034_23261">
<rect width="29" height="27" fill="white"/>
</clipPath>
</defs>
</svg>
