<svg width="189" height="37" viewBox="0 0 189 37" fill="none" xmlns="http://www.w3.org/2000/svg">
<path d="M47.3954 30H41.661C41.5777 30 41.536 29.9479 41.536 29.8438L41.5985 7.85938C41.5985 7.77604 41.6402 7.73438 41.7235 7.73438H47.8798C49.0777 7.73438 50.1662 8.02604 51.1454 8.60938C52.1037 9.19271 52.8589 9.96875 53.411 10.9375C53.9631 11.8958 54.2391 12.9375 54.2391 14.0625C54.2391 14.9792 54.0308 15.8333 53.6141 16.625C53.1975 17.4167 52.7027 18.0573 52.1298 18.5469C52.7443 19.1615 53.2235 19.875 53.5673 20.6875C53.911 21.5 54.0829 22.3542 54.0829 23.25C54.0829 24.4896 53.786 25.6198 53.1923 26.6406C52.5881 27.6615 51.7808 28.4792 50.7704 29.0938C49.76 29.6979 48.635 30 47.3954 30ZM47.8798 11.5312H45.4423V16.5625H47.8798C48.6193 16.5625 49.2183 16.3021 49.6766 15.7812C50.135 15.25 50.3641 14.6771 50.3641 14.0625C50.3641 13.3854 50.1193 12.7969 49.6298 12.2969C49.1402 11.7865 48.5568 11.5312 47.8798 11.5312ZM47.3954 20.4375H45.4423L45.411 26.0938H47.3954C48.1662 26.0938 48.8277 25.8125 49.3798 25.25C49.9318 24.6875 50.2079 24.0208 50.2079 23.25C50.2079 22.4792 49.9318 21.8177 49.3798 21.2656C48.8277 20.7135 48.1662 20.4375 47.3954 20.4375ZM61.6616 30.3125C60.5262 30.3125 59.4793 30.0208 58.521 29.4375C57.5731 28.8542 56.8075 28.0781 56.2241 27.1094C55.6512 26.1302 55.3648 25.0573 55.3648 23.8906L55.396 13.75C55.396 12.5625 55.6825 11.4948 56.2554 10.5469C56.8179 9.58854 57.5783 8.82292 58.5366 8.25C59.495 7.66667 60.5366 7.375 61.6616 7.375C62.8283 7.375 63.8752 7.66146 64.8023 8.23438C65.7398 8.80729 66.4898 9.57812 67.0523 10.5469C67.6252 11.5052 67.9116 12.5729 67.9116 13.75L67.9429 23.8906C67.9429 25.0573 67.6616 26.125 67.0991 27.0938C66.5262 28.0729 65.7658 28.8542 64.8179 29.4375C63.87 30.0208 62.8179 30.3125 61.6616 30.3125ZM61.6616 26.4531C62.3075 26.4531 62.87 26.1927 63.3491 25.6719C63.8283 25.1406 64.0679 24.5469 64.0679 23.8906L64.0366 13.75C64.0366 13.0417 63.8127 12.4427 63.3648 11.9531C62.9168 11.4635 62.3491 11.2188 61.6616 11.2188C61.0054 11.2188 60.4429 11.4583 59.9741 11.9375C59.5054 12.4167 59.271 13.0208 59.271 13.75V23.8906C59.271 24.5885 59.5054 25.1927 59.9741 25.7031C60.4429 26.2031 61.0054 26.4531 61.6616 26.4531ZM75.6466 30.3125C74.5112 30.3125 73.4643 30.0208 72.506 29.4375C71.5581 28.8542 70.7925 28.0781 70.2091 27.1094C69.6362 26.1302 69.3498 25.0573 69.3498 23.8906L69.381 13.75C69.381 12.5625 69.6675 11.4948 70.2404 10.5469C70.8029 9.58854 71.5633 8.82292 72.5216 8.25C73.48 7.66667 74.5216 7.375 75.6466 7.375C76.8133 7.375 77.8602 7.66146 78.7873 8.23438C79.7248 8.80729 80.4748 9.57812 81.0373 10.5469C81.6102 11.5052 81.8966 12.5729 81.8966 13.75L81.9279 23.8906C81.9279 25.0573 81.6466 26.125 81.0841 27.0938C80.5112 28.0729 79.7508 28.8542 78.8029 29.4375C77.855 30.0208 76.8029 30.3125 75.6466 30.3125ZM75.6466 26.4531C76.2925 26.4531 76.855 26.1927 77.3341 25.6719C77.8133 25.1406 78.0529 24.5469 78.0529 23.8906L78.0216 13.75C78.0216 13.0417 77.7977 12.4427 77.3498 11.9531C76.9018 11.4635 76.3341 11.2188 75.6466 11.2188C74.9904 11.2188 74.4279 11.4583 73.9591 11.9375C73.4904 12.4167 73.256 13.0208 73.256 13.75V23.8906C73.256 24.5885 73.4904 25.1927 73.9591 25.7031C74.4279 26.2031 74.9904 26.4531 75.6466 26.4531ZM87.4598 30H83.8348C83.7514 30 83.7098 29.9479 83.7098 29.8438L83.7723 7.89062C83.7723 7.78646 83.8139 7.73438 83.8973 7.73438H87.491C87.5743 7.73438 87.616 7.78646 87.616 7.89062V15.4688L92.6316 7.85938C92.715 7.77604 92.7931 7.73438 92.866 7.73438H96.5379C96.6316 7.73438 96.6525 7.77604 96.6004 7.85938L91.0691 16.6875L97.2723 29.875C97.3243 29.9583 97.2723 30 97.116 30H93.2098C93.1056 30 93.0431 29.9583 93.0223 29.875L88.6941 20.4688L87.5848 22.2188V29.8438C87.5848 29.9479 87.5431 30 87.4598 30ZM111.602 30.3125C110.445 30.3125 109.404 30.026 108.477 29.4531C107.539 28.8802 106.784 28.1094 106.211 27.1406C105.649 26.1719 105.367 25.0885 105.367 23.8906V13.75C105.367 12.5833 105.654 11.5208 106.227 10.5625C106.789 9.59375 107.544 8.82292 108.492 8.25C109.44 7.66667 110.477 7.375 111.602 7.375C112.779 7.375 113.841 7.65625 114.789 8.21875C115.737 8.79167 116.487 9.55729 117.039 10.5156C117.602 11.474 117.883 12.5521 117.883 13.75V15.2188C117.883 15.3021 117.831 15.3438 117.727 15.3438H114.133C114.05 15.3438 114.008 15.3021 114.008 15.2188V14C114.008 13.1875 113.779 12.5156 113.32 11.9844C112.862 11.4531 112.289 11.1875 111.602 11.1875C110.987 11.1875 110.44 11.4427 109.961 11.9531C109.482 12.4635 109.242 13.0625 109.242 13.75V23.8906C109.242 24.5885 109.477 25.1927 109.945 25.7031C110.414 26.2031 110.966 26.4531 111.602 26.4531C112.289 26.4531 112.862 26.2083 113.32 25.7188C113.779 25.2188 114.008 24.6094 114.008 23.8906V22.3125H111.774C111.659 22.3125 111.602 22.2604 111.602 22.1562V18.5781C111.602 18.474 111.659 18.4219 111.774 18.4219H117.758C117.841 18.4219 117.883 18.474 117.883 18.5781V23.8906C117.883 25.0885 117.602 26.1719 117.039 27.1406C116.466 28.1094 115.711 28.8802 114.774 29.4531C113.836 30.026 112.779 30.3125 111.602 30.3125ZM118.43 29.8438L122.399 7.85938C122.42 7.77604 122.472 7.73438 122.555 7.73438H127.196C127.279 7.73438 127.331 7.77604 127.352 7.85938L131.165 29.8438C131.175 29.9479 131.134 30 131.04 30H127.493C127.389 30 127.331 29.9479 127.321 29.8438L126.977 27.5H122.618L122.274 29.8438C122.264 29.9479 122.212 30 122.118 30H118.555C118.472 30 118.43 29.9479 118.43 29.8438ZM124.696 15.0938L123.259 24.0781H126.337L125.024 15.0938L124.837 13.9062L124.696 15.0938ZM136.275 30H132.65C132.566 30 132.525 29.9479 132.525 29.8438L132.587 7.85938C132.587 7.77604 132.629 7.73438 132.712 7.73438H139.181C140.337 7.73438 141.4 8.01562 142.369 8.57812C143.337 9.14062 144.108 9.89583 144.681 10.8438C145.264 11.7917 145.556 12.8646 145.556 14.0625C145.556 14.8438 145.436 15.5521 145.197 16.1875C144.957 16.8229 144.676 17.3594 144.353 17.7969C144.04 18.2344 143.754 18.5573 143.494 18.7656C144.65 20.0469 145.228 21.5521 145.228 23.2812L145.259 29.8438C145.259 29.9479 145.207 30 145.103 30H141.478C141.395 30 141.353 29.9688 141.353 29.9062V23.2812C141.353 22.5104 141.082 21.8438 140.54 21.2812C139.999 20.7188 139.332 20.4375 138.54 20.4375H136.431L136.4 29.8438C136.4 29.9479 136.358 30 136.275 30ZM139.181 11.5625H136.431V16.5938H139.181C139.837 16.5938 140.421 16.349 140.931 15.8594C141.452 15.3698 141.712 14.7708 141.712 14.0625C141.712 13.3854 141.462 12.8021 140.962 12.3125C140.462 11.8125 139.869 11.5625 139.181 11.5625ZM153.213 29.9688L147.479 30C147.374 30 147.322 29.9479 147.322 29.8438L147.385 7.85938C147.385 7.77604 147.426 7.73438 147.51 7.73438L153.494 7.70312C154.682 7.67188 155.755 7.94271 156.713 8.51562C157.682 9.08854 158.452 9.86458 159.025 10.8438C159.609 11.8125 159.9 12.8854 159.9 14.0625V23.25C159.9 24.4792 159.604 25.6042 159.01 26.625C158.406 27.6354 157.604 28.4427 156.604 29.0469C155.604 29.6406 154.473 29.9479 153.213 29.9688ZM153.494 11.5312L151.26 11.5625L151.229 26.0625H153.213C154.005 26.0625 154.671 25.7865 155.213 25.2344C155.755 24.6823 156.025 24.0208 156.025 23.25V14.0312C156.025 13.3542 155.775 12.7656 155.275 12.2656C154.775 11.7552 154.182 11.5104 153.494 11.5312ZM172.245 30H161.901C161.818 30 161.776 29.9479 161.776 29.8438L161.807 7.85938C161.807 7.77604 161.849 7.73438 161.932 7.73438H172.214C172.297 7.73438 172.339 7.78646 172.339 7.89062V11.4688C172.339 11.5521 172.297 11.5938 172.214 11.5938H165.651V16.5938H172.214C172.297 16.5938 172.339 16.6354 172.339 16.7188L172.37 20.3438C172.37 20.4271 172.328 20.4688 172.245 20.4688H165.651V26.0625H172.245C172.328 26.0625 172.37 26.1146 172.37 26.2188V29.875C172.37 29.9583 172.328 30 172.245 30ZM178.058 30H174.855C174.688 30 174.605 29.9271 174.605 29.7812L174.574 7.98438C174.574 7.81771 174.657 7.73438 174.824 7.73438H177.714L183.12 20.3438L182.964 7.98438C182.964 7.81771 183.058 7.73438 183.245 7.73438H186.417C186.542 7.73438 186.605 7.81771 186.605 7.98438L186.636 29.8125C186.636 29.9375 186.584 30 186.48 30H183.667L178.12 18.2188L178.355 29.75C178.355 29.9167 178.256 30 178.058 30Z" fill="black"/>
<path fill-rule="evenodd" clip-rule="evenodd" d="M13.875 7.89504C13.875 6.94075 14.6489 6.16683 15.6032 6.16683C16.2754 6.16683 16.8982 6.28554 17.3854 6.79583C17.5293 6.94647 17.7023 7.06637 17.8939 7.14829C18.0854 7.23021 18.2916 7.27244 18.5 7.27244C18.7083 7.27244 18.9145 7.23021 19.1061 7.14829C19.2977 7.06637 19.4707 6.94647 19.6146 6.79583C20.1018 6.28554 20.7246 6.16683 21.3968 6.16683C21.7387 6.16663 22.0731 6.26787 22.3575 6.45776C22.6418 6.64764 22.8635 6.91763 22.9944 7.23354C23.1253 7.54946 23.1595 7.8971 23.0927 8.23248C23.026 8.56785 22.8612 8.87588 22.6193 9.11758L18.5 13.2369L14.3806 9.11758C14.2201 8.95705 14.0928 8.76644 14.0061 8.55666C13.9193 8.34688 13.8748 8.12205 13.875 7.89504ZM15.6032 3.0835C14.6515 3.08342 13.7212 3.36558 12.9298 3.89427C12.1385 4.42296 11.5218 5.17445 11.1576 6.05369C10.7934 6.93293 10.6981 7.90043 10.8838 8.83382C11.0694 9.76722 11.5277 10.6246 12.2007 11.2975L17.41 16.5083C17.6991 16.7973 18.0912 16.9597 18.5 16.9597C18.9088 16.9597 19.3008 16.7973 19.5899 16.5083L24.7992 11.2975C25.4715 10.6243 25.9291 9.76699 26.1144 8.83384C26.2996 7.9007 26.2042 6.93358 25.8401 6.05464C25.476 5.1757 24.8596 4.42438 24.0688 3.89556C23.278 3.36674 22.3481 3.08416 21.3968 3.0835C20.3731 3.0835 19.3957 3.2577 18.5 3.78341C17.6058 3.25925 16.6269 3.0835 15.6032 3.0835ZM29.1051 13.8752C30.0594 13.8752 30.8333 14.6491 30.8333 15.6034C30.8333 16.2755 30.7146 16.8984 30.2043 17.3855C30.0537 17.5295 29.9338 17.7025 29.8519 17.894C29.7699 18.0856 29.7277 18.2918 29.7277 18.5002C29.7277 18.7085 29.7699 18.9147 29.8519 19.1063C29.9338 19.2979 30.0537 19.4708 30.2043 19.6148C30.7146 20.102 30.8333 20.7248 30.8333 21.397C30.8335 21.7389 30.7323 22.0732 30.5424 22.3576C30.3525 22.642 30.0825 22.8637 29.7666 22.9946C29.4507 23.1255 29.103 23.1597 28.7677 23.0929C28.4323 23.0262 28.1243 22.8614 27.8826 22.6195L23.7632 18.5002L27.8826 14.3808C28.2063 14.0571 28.6457 13.8752 29.1051 13.8752ZM33.9166 15.6034C33.9167 14.6517 33.6346 13.7214 33.1059 12.93C32.5772 12.1387 31.8257 11.5219 30.9465 11.1577C30.0672 10.7935 29.0997 10.6982 28.1663 10.8839C27.2329 11.0696 26.3756 11.5279 25.7026 12.2009L20.4918 17.4102C20.2028 17.6993 20.0404 18.0914 20.0404 18.5002C20.0404 18.909 20.2028 19.301 20.4918 19.5901L25.7026 24.7994C26.3756 25.4724 27.2329 25.9307 28.1663 26.1164C29.0997 26.3021 30.0672 26.2068 30.9465 25.8426C31.8257 25.4784 32.5772 24.8616 33.1059 24.0703C33.6346 23.279 33.9167 22.3486 33.9166 21.397C33.9166 20.3733 33.7424 19.3959 33.2167 18.5002C33.7409 17.606 33.9166 16.627 33.9166 15.6034ZM21.3968 30.8335C21.7387 30.8337 22.0731 30.7325 22.3575 30.5426C22.6418 30.3527 22.8635 30.0827 22.9944 29.7668C23.1253 29.4509 23.1595 29.1032 23.0927 28.7678C23.026 28.4325 22.8612 28.1244 22.6193 27.8827L18.5 23.7634L14.3806 27.8827C14.1387 28.1244 13.974 28.4325 13.9072 28.7678C13.8404 29.1032 13.8747 29.4509 14.0056 29.7668C14.1365 30.0827 14.3581 30.3527 14.6425 30.5426C14.9269 30.7325 15.2612 30.8337 15.6032 30.8335C16.2754 30.8335 16.8982 30.7148 17.3854 30.2045C17.5293 30.0539 17.7023 29.934 17.8939 29.852C18.0854 29.7701 18.2916 29.7279 18.5 29.7279C18.7083 29.7279 18.9145 29.7701 19.1061 29.852C19.2977 29.934 19.4707 30.0539 19.6146 30.2045C20.1018 30.7148 20.7246 30.8335 21.3968 30.8335ZM26.2083 29.1053C26.2085 29.7372 26.0842 30.363 25.8425 30.9468C25.6007 31.5307 25.2463 32.0612 24.7995 32.508C24.3527 32.9548 23.8222 33.3093 23.2383 33.551C22.6545 33.7927 22.0287 33.917 21.3968 33.9168C20.3731 33.9168 19.3957 33.7426 18.5 33.2169C17.6058 33.7411 16.6269 33.9168 15.6032 33.9168C14.6515 33.9169 13.7212 33.6348 12.9298 33.1061C12.1385 32.5774 11.5218 31.8259 11.1576 30.9466C10.7934 30.0674 10.6981 29.0999 10.8838 28.1665C11.0694 27.2331 11.5277 26.3757 12.2007 25.7028L17.41 20.492C17.6991 20.203 18.0912 20.0406 18.5 20.0406C18.9088 20.0406 19.3008 20.203 19.5899 20.492L24.7992 25.7028C25.7011 26.6047 26.2083 27.8288 26.2083 29.1053ZM7.89485 23.1252C7.66785 23.1254 7.44303 23.0808 7.23326 22.994C7.02349 22.9072 6.83289 22.78 6.67237 22.6194C6.51186 22.4589 6.38456 22.2683 6.29779 22.0586C6.21101 21.8488 6.16644 21.624 6.16665 21.397C6.16665 20.7248 6.28535 20.102 6.79565 19.6148C6.94629 19.4708 7.06619 19.2979 7.1481 19.1063C7.23002 18.9147 7.27226 18.7085 7.27226 18.5002C7.27226 18.2918 7.23002 18.0856 7.1481 17.894C7.06619 17.7025 6.94629 17.5295 6.79565 17.3855C6.28535 16.8984 6.16665 16.2755 6.16665 15.6034C6.16644 15.2614 6.26769 14.9271 6.45757 14.6427C6.64746 14.3583 6.91744 14.1366 7.23336 14.0057C7.54927 13.8749 7.89692 13.8406 8.23229 13.9074C8.56767 13.9742 8.8757 14.1389 9.1174 14.3808L13.2367 18.5002L9.1174 22.6195C8.95686 22.78 8.76626 22.9073 8.55648 22.9941C8.3467 23.0808 8.12187 23.1254 7.89485 23.1252ZM3.08331 21.397C3.08324 22.3486 3.36539 23.279 3.89409 24.0703C4.42278 24.8616 5.17427 25.4784 6.05351 25.8426C6.93275 26.2068 7.90025 26.3021 8.83364 26.1164C9.76704 25.9307 10.6244 25.4724 11.2973 24.7994L16.5081 19.5901C16.7972 19.301 16.9595 18.909 16.9595 18.5002C16.9595 18.0914 16.7972 17.6993 16.5081 17.4102L11.2973 12.2009C10.6244 11.5279 9.76704 11.0696 8.83364 10.8839C7.90025 10.6982 6.93275 10.7935 6.05351 11.1577C5.17427 11.5219 4.42278 12.1387 3.89409 12.93C3.36539 13.7214 3.08324 14.6517 3.08331 15.6034C3.08331 16.627 3.25752 17.6045 3.78323 18.5002C3.25906 19.3943 3.08331 20.3733 3.08331 21.397Z" fill="black"/>
</svg>
