<svg width="31" height="34" viewBox="0 0 31 34" fill="none" xmlns="http://www.w3.org/2000/svg">
<path fill-rule="evenodd" clip-rule="evenodd" d="M10.875 4.89504C10.875 3.94075 11.6489 3.16683 12.6032 3.16683C13.2754 3.16683 13.8982 3.28554 14.3854 3.79583C14.5293 3.94647 14.7023 4.06637 14.8939 4.14829C15.0854 4.2302 15.2916 4.27244 15.5 4.27244C15.7083 4.27244 15.9145 4.2302 16.1061 4.14829C16.2977 4.06637 16.4707 3.94647 16.6146 3.79583C17.1018 3.28554 17.7246 3.16683 18.3968 3.16683C18.7387 3.16663 19.0731 3.26787 19.3575 3.45776C19.6418 3.64764 19.8635 3.91763 19.9944 4.23354C20.1253 4.54946 20.1595 4.8971 20.0927 5.23248C20.026 5.56785 19.8612 5.87588 19.6193 6.11758L15.5 10.2369L11.3806 6.11758C11.2201 5.95705 11.0928 5.76644 11.0061 5.55666C10.9193 5.34688 10.8748 5.12205 10.875 4.89504ZM12.6032 0.0834961C11.6515 0.0834231 10.7212 0.365575 9.92985 0.894269C9.13852 1.42296 8.52176 2.17445 8.15755 3.05369C7.79335 3.93293 7.69807 4.90043 7.88375 5.83382C8.06944 6.76722 8.52775 7.62459 9.20073 8.2975L14.41 13.5083C14.6991 13.7973 15.0912 13.9597 15.5 13.9597C15.9088 13.9597 16.3008 13.7973 16.5899 13.5083L21.7992 8.2975C22.4715 7.6243 22.9291 6.76699 23.1144 5.83384C23.2996 4.9007 23.2042 3.93358 22.8401 3.05464C22.476 2.1757 21.8596 1.42438 21.0688 0.895561C20.278 0.366744 19.3481 0.0841582 18.3968 0.0834961C17.3731 0.0834961 16.3957 0.257704 15.5 0.783413C14.6058 0.259246 13.6269 0.0834961 12.6032 0.0834961ZM26.1051 10.8752C27.0594 10.8752 27.8333 11.6491 27.8333 12.6034C27.8333 13.2755 27.7146 13.8984 27.2043 14.3855C27.0537 14.5295 26.9338 14.7025 26.8519 14.894C26.7699 15.0856 26.7277 15.2918 26.7277 15.5002C26.7277 15.7085 26.7699 15.9147 26.8519 16.1063C26.9338 16.2979 27.0537 16.4708 27.2043 16.6148C27.7146 17.102 27.8333 17.7248 27.8333 18.397C27.8335 18.7389 27.7323 19.0732 27.5424 19.3576C27.3525 19.642 27.0825 19.8637 26.7666 19.9946C26.4507 20.1255 26.103 20.1597 25.7677 20.0929C25.4323 20.0262 25.1243 19.8614 24.8826 19.6195L20.7632 15.5002L24.8826 11.3808C25.2063 11.0571 25.6457 10.8752 26.1051 10.8752ZM30.9166 12.6034C30.9167 11.6517 30.6346 10.7214 30.1059 9.93003C29.5772 9.13871 28.8257 8.52194 27.9465 8.15774C27.0672 7.79353 26.0997 7.69825 25.1663 7.88393C24.2329 8.06962 23.3756 8.52793 22.7026 9.20091L17.4918 14.4102C17.2028 14.6993 17.0404 15.0914 17.0404 15.5002C17.0404 15.909 17.2028 16.301 17.4918 16.5901L22.7026 21.7994C23.3756 22.4724 24.2329 22.9307 25.1663 23.1164C26.0997 23.3021 27.0672 23.2068 27.9465 22.8426C28.8257 22.4784 29.5772 21.8616 30.1059 21.0703C30.6346 20.279 30.9167 19.3486 30.9166 18.397C30.9166 17.3733 30.7424 16.3959 30.2167 15.5002C30.7409 14.606 30.9166 13.627 30.9166 12.6034ZM18.3968 27.8335C18.7387 27.8337 19.0731 27.7325 19.3575 27.5426C19.6418 27.3527 19.8635 27.0827 19.9944 26.7668C20.1253 26.4509 20.1595 26.1032 20.0927 25.7678C20.026 25.4325 19.8612 25.1244 19.6193 24.8827L15.5 20.7634L11.3806 24.8827C11.1387 25.1244 10.974 25.4325 10.9072 25.7678C10.8404 26.1032 10.8747 26.4509 11.0056 26.7668C11.1365 27.0827 11.3581 27.3527 11.6425 27.5426C11.9269 27.7325 12.2612 27.8337 12.6032 27.8335C13.2754 27.8335 13.8982 27.7148 14.3854 27.2045C14.5293 27.0539 14.7023 26.934 14.8939 26.852C15.0854 26.7701 15.2916 26.7279 15.5 26.7279C15.7083 26.7279 15.9145 26.7701 16.1061 26.852C16.2977 26.934 16.4707 27.0539 16.6146 27.2045C17.1018 27.7148 17.7246 27.8335 18.3968 27.8335ZM23.2083 26.1053C23.2085 26.7372 23.0842 27.363 22.8425 27.9468C22.6007 28.5307 22.2463 29.0612 21.7995 29.508C21.3527 29.9548 20.8222 30.3093 20.2383 30.551C19.6545 30.7927 19.0287 30.917 18.3968 30.9168C17.3731 30.9168 16.3957 30.7426 15.5 30.2169C14.6058 30.7411 13.6269 30.9168 12.6032 30.9168C11.6515 30.9169 10.7212 30.6348 9.92985 30.1061C9.13852 29.5774 8.52176 28.8259 8.15755 27.9466C7.79335 27.0674 7.69807 26.0999 7.88375 25.1665C8.06944 24.2331 8.52775 23.3757 9.20073 22.7028L14.41 17.492C14.6991 17.203 15.0912 17.0406 15.5 17.0406C15.9088 17.0406 16.3008 17.203 16.5899 17.492L21.7992 22.7028C22.7011 23.6047 23.2083 24.8288 23.2083 26.1053ZM4.89485 20.1252C4.66785 20.1254 4.44303 20.0808 4.23326 19.994C4.02349 19.9072 3.83289 19.78 3.67238 19.6194C3.51186 19.4589 3.38456 19.2683 3.29779 19.0586C3.21101 18.8488 3.16644 18.624 3.16665 18.397C3.16665 17.7248 3.28535 17.102 3.79565 16.6148C3.94629 16.4708 4.06619 16.2979 4.1481 16.1063C4.23002 15.9147 4.27226 15.7085 4.27226 15.5002C4.27226 15.2918 4.23002 15.0856 4.1481 14.894C4.06619 14.7025 3.94629 14.5295 3.79565 14.3855C3.28535 13.8984 3.16665 13.2755 3.16665 12.6034C3.16644 12.2614 3.26769 11.9271 3.45757 11.6427C3.64746 11.3583 3.91744 11.1366 4.23336 11.0057C4.54927 10.8749 4.89692 10.8406 5.23229 10.9074C5.56767 10.9742 5.8757 11.1389 6.1174 11.3808L10.2367 15.5002L6.1174 19.6195C5.95686 19.78 5.76626 19.9073 5.55648 19.9941C5.3467 20.0808 5.12187 20.1254 4.89485 20.1252ZM0.083313 18.397C0.08324 19.3486 0.365392 20.279 0.894086 21.0703C1.42278 21.8616 2.17427 22.4784 3.05351 22.8426C3.93275 23.2068 4.90025 23.3021 5.83364 23.1164C6.76704 22.9307 7.62441 22.4724 8.29731 21.7994L13.5081 16.5901C13.7972 16.301 13.9595 15.909 13.9595 15.5002C13.9595 15.0914 13.7972 14.6993 13.5081 14.4102L8.29731 9.20091C7.62441 8.52793 6.76704 8.06962 5.83364 7.88393C4.90025 7.69825 3.93275 7.79353 3.05351 8.15774C2.17427 8.52194 1.42278 9.13871 0.894086 9.93003C0.365392 10.7214 0.08324 11.6517 0.083313 12.6034C0.083313 13.627 0.257521 14.6045 0.78323 15.5002C0.259063 16.3943 0.083313 17.3733 0.083313 18.397Z" fill="black"/>
</svg>
