<svg width="26" height="26" viewBox="0 0 26 26" fill="none" xmlns="http://www.w3.org/2000/svg">
<path d="M0 3.97222C0 2.91872 0.418501 1.90837 1.16344 1.16344C1.90837 0.418501 2.91872 0 3.97222 0H18.3661C19.6111 7.43483e-05 20.8051 0.494715 21.6854 1.37511L24.6249 4.31456C25.506 5.19567 26 6.39022 26 7.63533V22.0278C26 23.0813 25.5815 24.0916 24.8366 24.8366C24.0916 25.5815 23.0813 26 22.0278 26H3.97222C2.91872 26 1.90837 25.5815 1.16344 24.8366C0.418501 24.0916 0 23.0813 0 22.0278V3.97222ZM3.97222 2.16667C2.97556 2.16667 2.16667 2.97556 2.16667 3.97222V22.0278C2.16667 23.0244 2.97556 23.8333 3.97222 23.8333H4.33333V16.25C4.33333 15.388 4.67574 14.5614 5.28524 13.9519C5.89473 13.3424 6.72138 13 7.58333 13H18.4167C19.2786 13 20.1053 13.3424 20.7148 13.9519C21.3243 14.5614 21.6667 15.388 21.6667 16.25V23.8333H22.0278C23.0244 23.8333 23.8333 23.0244 23.8333 22.0278V7.63533C23.8333 6.96367 23.5676 6.32089 23.0923 5.84711L20.1529 2.90767C19.7797 2.53387 19.2988 2.28635 18.7778 2.19989V6.13889C18.7778 6.56568 18.6937 6.9883 18.5304 7.38261C18.3671 7.77692 18.1277 8.13519 17.8259 8.43699C17.5241 8.73878 17.1658 8.97817 16.7715 9.1415C16.3772 9.30482 15.9546 9.38889 15.5278 9.38889H9.02778C8.16582 9.38889 7.33917 9.04648 6.72968 8.43699C6.12019 7.82749 5.77778 7.00084 5.77778 6.13889V2.16667H3.97222ZM19.5 23.8333V16.25C19.5 15.9627 19.3859 15.6871 19.1827 15.484C18.9795 15.2808 18.704 15.1667 18.4167 15.1667H7.58333C7.29602 15.1667 7.02046 15.2808 6.8173 15.484C6.61414 15.6871 6.5 15.9627 6.5 16.25V23.8333H19.5ZM7.94444 2.16667V6.13889C7.94444 6.73689 8.42978 7.22222 9.02778 7.22222H15.5278C15.8151 7.22222 16.0906 7.10809 16.2938 6.90492C16.497 6.70176 16.6111 6.42621 16.6111 6.13889V2.16667H7.94444Z" fill="white"/>
</svg>
