<svg width="32" height="32" viewBox="0 0 32 32" fill="none" xmlns="http://www.w3.org/2000/svg">
<g clip-path="url(#clip0_165_515)">
<mask id="mask0_165_515" style="mask-type:luminance" maskUnits="userSpaceOnUse" x="0" y="0" width="32" height="32">
<path d="M32 0H0V32H32V0Z" fill="white"/>
</mask>
<g mask="url(#mask0_165_515)">
<path fill-rule="evenodd" clip-rule="evenodd" d="M4.57123 13.7143C4.57123 11.2894 5.53449 8.96393 7.24911 7.24931C8.96373 5.53469 11.2893 4.57143 13.7141 4.57143C16.1389 4.57143 18.4645 5.53469 20.1791 7.24931C21.8937 8.96393 22.857 11.2894 22.857 13.7143C22.857 16.1391 21.8937 18.4646 20.1791 20.1793C18.4645 21.8939 16.1389 22.8571 13.7141 22.8571C11.2893 22.8571 8.96373 21.8939 7.24911 20.1793C5.53449 18.4646 4.57123 16.1391 4.57123 13.7143ZM13.7141 2.5934e-07C11.5557 -0.000275176 9.42772 0.508897 7.50321 1.48611C5.57871 2.46331 3.91203 3.88097 2.63872 5.62376C1.36541 7.36656 0.521426 9.38529 0.175416 11.5158C-0.170593 13.6462 -0.00886166 15.8283 0.647456 17.8845C1.30378 19.9407 2.43615 21.8129 3.95248 23.3489C5.46881 24.885 7.32628 26.0414 9.37382 26.7242C11.4214 27.407 13.6012 27.5969 15.7359 27.2785C17.8707 26.96 19.9002 26.1421 21.6592 24.8914L28.0981 31.3303C28.5292 31.7466 29.1066 31.977 29.7059 31.9718C30.3052 31.9666 30.8785 31.7262 31.3023 31.3024C31.726 30.8787 31.9664 30.3054 31.9716 29.7061C31.9768 29.1068 31.7465 28.5294 31.3301 28.0983L24.8935 21.6617C26.3525 19.61 27.2185 17.1962 27.3967 14.685C27.5748 12.1737 27.0583 9.66188 25.9037 7.42469C24.7492 5.18749 23.001 3.31128 20.8509 2.00165C18.7008 0.692024 16.2317 -0.000489259 13.7141 2.5934e-07Z" fill="black"/>
</g>
</g>
<defs>
<clipPath id="clip0_165_515">
<rect width="32" height="32" fill="white"/>
</clipPath>
</defs>
</svg>
