<svg width="198" height="189" viewBox="0 0 198 189" fill="none" xmlns="http://www.w3.org/2000/svg">
<path fill-rule="evenodd" clip-rule="evenodd" d="M6.96242 66.7271C3.28711 60.3613 5.46908 52.2181 11.8349 48.5428C16.3188 45.954 20.9307 44.3471 26.1458 45.8749C27.6861 46.3254 29.3018 46.459 30.8953 46.2677C32.4887 46.0763 34.0268 45.5639 35.4167 44.7614C36.8066 43.959 38.0194 42.8831 38.9819 41.5989C39.9443 40.3146 40.6365 38.8486 41.0165 37.2893C42.301 32.009 45.9985 28.8184 50.4824 26.2297C52.7627 24.9113 55.3829 24.2991 58.0113 24.4705C60.6397 24.6418 63.1582 25.5891 65.248 27.1924C67.3378 28.7957 68.905 30.9829 69.7513 33.4773C70.5975 35.9716 70.6848 38.6609 70.002 41.2049L58.388 84.5489L15.044 72.9349C13.355 72.4822 11.7718 71.7009 10.3851 70.6357C8.99835 69.5705 7.83527 68.2423 6.96242 66.7271ZM-0.0400899 27.9747C-6.38883 31.6395 -11.5082 37.1047 -14.7507 43.6791C-17.9932 50.2535 -19.2132 57.6419 -18.2565 64.9098C-17.2997 72.1776 -14.2092 78.9985 -9.37568 84.5098C-4.54219 90.0211 1.81712 93.9753 8.89801 95.8722L63.7166 110.569C66.7582 111.384 69.9988 110.957 72.7258 109.383C75.4528 107.808 77.4428 105.215 78.2582 102.174L92.9393 47.3509C94.8308 40.2712 94.5818 32.7898 92.2238 25.8515C89.8657 18.9132 85.5044 12.8294 79.6906 8.36842C73.8769 3.90746 66.8715 1.26949 59.5593 0.78771C52.2471 0.305925 44.9562 2.00195 38.6074 5.66155C31.7788 9.60405 25.9296 14.5305 21.9793 21.4871C13.9958 21.4342 6.78852 24.0322 -0.0400899 27.9747ZM131.59 47.9624C137.956 44.2871 146.099 46.4691 149.775 52.8349C152.363 57.3187 153.97 61.9307 152.442 67.1458C151.992 68.6861 151.858 70.3018 152.05 71.8953C152.241 73.4887 152.753 75.0268 153.556 76.4167C154.358 77.8066 155.434 79.0194 156.718 79.9819C158.003 80.9443 159.469 81.6365 161.028 82.0165C166.308 83.301 169.499 86.9985 172.088 91.4824C173.406 93.7627 174.018 96.3828 173.847 99.0113C173.675 101.64 172.728 104.158 171.125 106.248C169.522 108.338 167.334 109.905 164.84 110.751C162.346 111.598 159.656 111.685 157.112 111.002L113.768 99.388L125.382 56.044C126.295 52.6375 128.525 49.7318 131.59 47.9624ZM170.343 40.9599C166.678 34.6112 161.213 29.4918 154.638 26.2493C148.064 23.0068 140.675 21.7868 133.408 22.7435C126.14 23.7003 119.319 26.7908 113.807 31.6243C108.296 36.4578 104.342 42.8171 102.445 49.898L87.7478 104.717C86.9333 107.758 87.3602 110.999 88.9346 113.726C90.509 116.453 93.102 118.443 96.1435 119.258L150.966 133.939C158.047 135.837 165.531 135.592 172.473 133.236C179.415 130.88 185.502 126.518 189.964 120.702C194.427 114.886 197.064 107.878 197.543 100.563C198.022 93.2482 196.321 85.9555 192.656 79.6074C188.713 72.7788 183.787 66.9296 176.83 62.9793C176.883 54.9958 174.285 47.7885 170.343 40.9599ZM145.482 190.774C147.764 189.459 149.605 187.496 150.77 185.134C151.936 182.772 152.375 180.117 152.031 177.506C151.688 174.894 150.577 172.443 148.84 170.463C147.103 168.483 144.818 167.063 142.273 166.382L98.9293 154.768L87.3153 198.112C86.6325 200.656 86.7197 203.346 87.566 205.84C88.4122 208.334 89.9795 210.522 92.0693 212.125C94.1591 213.728 96.6776 214.675 99.306 214.847C101.934 215.018 104.555 214.406 106.835 213.088C111.319 210.499 115.016 207.308 116.301 202.028C116.681 200.469 117.373 199.003 118.335 197.718C119.298 196.434 120.511 195.358 121.901 194.556C123.29 193.753 124.829 193.241 126.422 193.05C128.015 192.858 129.631 192.992 131.172 193.442C136.387 194.97 140.999 193.363 145.482 190.774ZM170.923 160.715C173.358 164.93 174.939 169.583 175.575 174.409C176.211 179.234 175.89 184.138 174.63 188.84C173.37 193.541 171.197 197.949 168.233 201.81C165.269 205.671 161.574 208.91 157.357 211.343C150.529 215.285 143.338 217.887 135.338 217.83C131.392 224.771 125.539 229.713 118.71 233.656C112.362 237.321 105.069 239.022 97.7542 238.543C90.4393 238.064 83.4308 235.427 77.615 230.964C71.7992 226.502 67.4374 220.415 65.0813 213.473C62.7251 206.531 62.4803 199.047 64.378 191.966L79.0591 137.143C79.8745 134.102 81.8645 131.509 84.5915 129.935C87.3184 128.36 90.5591 127.933 93.6007 128.748L148.419 143.445C157.909 145.988 166.007 152.2 170.923 160.715ZM25.7271 191.355C24.2136 192.23 22.5423 192.799 20.8087 193.028C19.0752 193.257 17.3136 193.142 15.6246 192.689C13.9356 192.237 12.3524 191.456 10.9656 190.391C9.57885 189.326 8.41572 187.997 7.54278 186.482C4.95404 181.999 3.34716 177.387 4.87493 172.172C5.32544 170.631 5.45905 169.015 5.26767 167.422C5.07629 165.829 4.5639 164.29 3.76146 162.901C2.95901 161.511 1.88315 160.298 0.598876 159.335C-0.685399 158.373 -2.15144 157.681 -3.71069 157.301C-8.99096 156.016 -12.1816 152.319 -14.7703 147.835C-16.0887 145.555 -16.7009 142.934 -16.5295 140.306C-16.3582 137.678 -15.4109 135.159 -13.8076 133.069C-12.2043 130.979 -10.0171 129.412 -7.52274 128.566C-5.02839 127.72 -2.33906 127.632 0.2049 128.315L43.5489 139.929L31.9349 183.273C31.4822 184.962 30.7009 186.545 29.6357 187.932C28.5705 189.319 27.2423 190.482 25.7271 191.355ZM-13.0253 198.357C-9.36053 204.706 -3.89532 209.825 2.67912 213.068C9.25356 216.31 16.6419 217.53 23.9098 216.574C31.1776 215.617 37.9985 212.526 43.5098 207.693C49.0211 202.859 52.9753 196.5 54.8722 189.419L69.5695 134.601C70.384 131.559 69.9571 128.318 68.3827 125.591C66.8083 122.864 64.2152 120.874 61.1738 120.059L6.35093 105.378C-0.72975 103.48 -8.21415 103.725 -15.1557 106.081C-22.0973 108.437 -28.1843 112.799 -32.6468 118.615C-37.1093 124.431 -39.7468 131.439 -40.226 138.754C-40.7051 146.069 -39.0042 153.362 -35.3384 159.71C-31.3959 166.539 -26.4695 172.388 -19.5129 176.338C-19.5657 184.322 -16.9678 191.529 -13.0253 198.357Z" fill="white" fill-opacity="0.5"/>
</svg>
